<?xml version="1.0" encoding="UTF-8" standalone="no"?>
<svg
   viewBox="5864.2679 3098.5859 512.02324 68.000003"
   width="512.02325"
   height="68"
   version="1.1"
   id="svg217"
   sodipodi:docname="volcano_engine.svg"
   inkscape:version="1.4.4 (dcaf3e7, 2026-05-05)"
   xmlns:inkscape="http://www.inkscape.org/namespaces/inkscape"
   xmlns:sodipodi="http://sodipodi.sourceforge.net/DTD/sodipodi-0.dtd"
   xmlns="http://www.w3.org/2000/svg"
   xmlns:svg="http://www.w3.org/2000/svg">
  <sodipodi:namedview
     id="namedview217"
     pagecolor="#ffffff"
     bordercolor="#000000"
     borderopacity="0.25"
     inkscape:showpageshadow="2"
     inkscape:pageopacity="0.0"
     inkscape:pagecheckerboard="0"
     inkscape:deskcolor="#d1d1d1"
     inkscape:zoom="0.34"
     inkscape:cx="261.76471"
     inkscape:cy="377.94118"
     inkscape:current-layer="_图层_1" />
  <defs
     id="defs1">
    <style
       id="style1">
      .cls-1, .cls-2, .cls-3 {
        fill-rule: evenodd;
      }

      .cls-1, .cls-4, .cls-5 {
        fill: #fff;
      }

      .cls-2, .cls-6 {
        fill: #1c2633;
      }

      .cls-5 {
        stroke: #000;
        stroke-width: .26px;
      }

      .cls-5, .cls-7 {
        stroke-miterlimit: 10;
      }

      .cls-7 {
        fill: none;
        stroke: #333;
        stroke-dasharray: 3.48;
        stroke-width: .5px;
      }

      .cls-8 {
        fill: #00dcff;
      }

      .cls-9 {
        fill: #006aff;
      }
    </style>
  </defs>
  <g
     data-name="图层 1"
     id="_图层_1"
     transform="translate(-44.99211,-121.0741)">
    <g
       id="g46">
      <path
         d="m 6404.49,3274.06 c -3.1,0 -5.93,-0.76 -8.51,-2.27 -2.58,-1.51 -4.61,-3.56 -6.1,-6.13 -1.49,-2.57 -2.23,-5.35 -2.23,-8.34 0,-2.99 0.75,-5.88 2.26,-8.46 1.51,-2.57 3.55,-4.61 6.13,-6.1 2.58,-1.49 5.4,-2.24 8.45,-2.24 2.72,0 5.26,0.61 7.62,1.84 2.35,1.23 4.3,2.89 5.85,4.99 1.55,2.11 2.55,4.47 3,7.08 0.41,1.84 0.43,3.66 0.06,5.46 h -26.38 c 0.29,1.63 0.9,3.04 1.83,4.23 0.93,1.19 2.08,2.09 3.47,2.73 1.38,0.63 2.9,0.95 4.55,0.95 1.73,0 3.42,-0.36 5.05,-1.07 1.63,-0.71 2.98,-1.69 4.05,-2.91 l 6.25,1.59 c -1.28,2.62 -3.36,4.71 -6.25,6.28 -2.72,1.48 -5.57,2.26 -8.54,2.35 h -0.56 z m 9.59,-19.56 c -0.29,-1.39 -0.88,-2.68 -1.76,-3.86 -0.89,-1.19 -2,-2.12 -3.34,-2.82 -1.34,-0.69 -2.86,-1.04 -4.55,-1.04 -1.69,0 -3.23,0.35 -4.61,1.04 -1.38,0.7 -2.52,1.63 -3.41,2.82 -0.89,1.19 -1.48,2.47 -1.76,3.86 h 19.44 z m -62.47,19.07 v -32.49 h 7.06 v 4.29 c 1.11,-1.43 2.55,-2.59 4.3,-3.49 1.75,-0.9 3.75,-1.35 5.97,-1.35 2.39,0 4.64,0.53 6.75,1.59 2.1,1.06 3.8,2.6 5.08,4.6 1.28,2 1.92,4.31 1.92,6.93 v 19.92 h -7.12 v -18.02 c 0,-1.72 -0.36,-3.21 -1.08,-4.47 -0.72,-1.27 -1.69,-2.25 -2.91,-2.94 -1.22,-0.69 -2.57,-1.04 -4.06,-1.04 -1.69,0 -3.22,0.43 -4.58,1.29 -1.36,0.86 -2.41,2.02 -3.16,3.49 -0.74,1.47 -1.11,3.15 -1.11,5.03 v 16.67 h -7.06 z m -10.46,-36.29 c -1.28,0 -2.37,-0.42 -3.28,-1.26 -0.91,-0.84 -1.36,-1.89 -1.36,-3.16 0,-1.27 0.45,-2.27 1.36,-3.13 0.91,-0.86 2,-1.29 3.28,-1.29 1.28,0 2.36,0.43 3.25,1.29 0.89,0.86 1.33,1.9 1.33,3.13 0,1.23 -0.44,2.32 -1.33,3.16 -0.82,0.77 -1.81,1.19 -2.96,1.25 h -0.29 z m -3.65,36.29 h 7.12 v -32.49 h -7.12 z m -23.22,14.09 c -2.44,0 -4.78,-0.45 -7.03,-1.35 -2.25,-0.9 -4.19,-2.27 -5.82,-4.11 -1.63,-1.84 -2.78,-4.11 -3.44,-6.8 h 7.12 c 0.5,1.35 1.22,2.45 2.17,3.31 0.95,0.86 2.02,1.47 3.22,1.84 1.2,0.37 2.43,0.55 3.71,0.55 1.73,0 3.29,-0.35 4.67,-1.04 1.38,-0.7 2.48,-1.78 3.28,-3.25 0.8,-1.47 1.21,-3.33 1.21,-5.58 v -2.64 c -1.2,1.39 -2.69,2.49 -4.49,3.31 -1.8,0.82 -3.81,1.23 -6.04,1.23 -3.1,0 -5.89,-0.71 -8.39,-2.15 -2.5,-1.43 -4.45,-3.39 -5.85,-5.88 -1.4,-2.49 -2.11,-5.25 -2.11,-8.27 0,-3.02 0.71,-5.9 2.14,-8.4 1.42,-2.49 3.38,-4.44 5.88,-5.85 2.5,-1.41 5.27,-2.09 8.33,-2.05 2.19,0.04 4.19,0.48 6.01,1.32 1.82,0.84 3.32,2.01 4.52,3.52 v -4.29 h 7.12 v 30.03 c 0,3.43 -0.73,6.41 -2.2,8.92 -1.47,2.51 -3.43,4.41 -5.88,5.7 -2.46,1.29 -5.17,1.93 -8.14,1.93 z m -0.81,-20.77 c 1.86,0 3.58,-0.45 5.17,-1.35 1.59,-0.9 2.86,-2.11 3.81,-3.65 0.95,-1.53 1.42,-3.22 1.42,-5.06 0,-1.84 -0.46,-3.52 -1.39,-5.06 -0.93,-1.53 -2.2,-2.74 -3.81,-3.62 -1.61,-0.88 -3.34,-1.32 -5.2,-1.32 -1.86,0 -3.63,0.44 -5.2,1.32 -1.57,0.88 -2.82,2.08 -3.75,3.62 -0.93,1.53 -1.39,3.22 -1.39,5.06 0,1.84 0.46,3.54 1.39,5.09 0.93,1.55 2.19,2.77 3.78,3.65 1.59,0.88 3.31,1.32 5.17,1.32 z m -52.99,6.68 v -32.49 h 7.06 v 4.29 c 1.11,-1.43 2.55,-2.59 4.3,-3.49 1.75,-0.9 3.75,-1.35 5.97,-1.35 2.39,0 4.64,0.53 6.75,1.59 2.1,1.06 3.8,2.6 5.08,4.6 1.28,2 1.92,4.31 1.92,6.93 v 19.92 h -7.12 v -18.02 c 0,-1.72 -0.36,-3.21 -1.08,-4.47 -0.72,-1.27 -1.69,-2.25 -2.91,-2.94 -1.22,-0.69 -2.57,-1.04 -4.06,-1.04 -1.69,0 -3.22,0.43 -4.58,1.29 -1.36,0.86 -2.41,2.02 -3.16,3.49 -0.74,1.47 -1.11,3.15 -1.11,5.03 v 16.67 h -7.06 z m -37.21,0 v -42.91 h 30.83 v 6.74 h -23.53 v 11.4 h 21.05 v 6.62 h -21.05 v 11.4 h 23.53 v 6.74 h -30.83 z m -22.6,0.49 c -3.1,0 -5.92,-0.76 -8.48,-2.27 -2.56,-1.51 -4.6,-3.56 -6.13,-6.13 -1.53,-2.57 -2.29,-5.37 -2.29,-8.4 0,-3.03 0.76,-5.81 2.29,-8.37 1.53,-2.55 3.57,-4.59 6.13,-6.1 2.56,-1.51 5.39,-2.27 8.48,-2.27 3.09,0 5.87,0.76 8.45,2.27 2.58,1.51 4.62,3.56 6.13,6.13 1.51,2.57 2.26,5.35 2.26,8.34 0,2.99 -0.75,5.82 -2.26,8.4 -1.51,2.57 -3.55,4.62 -6.13,6.13 -2.58,1.51 -5.4,2.27 -8.45,2.27 z m 0,-6.44 c 1.86,0 3.56,-0.47 5.11,-1.41 1.55,-0.94 2.78,-2.2 3.68,-3.77 0.91,-1.57 1.36,-3.3 1.36,-5.18 0,-1.88 -0.45,-3.55 -1.36,-5.15 -0.91,-1.59 -2.14,-2.85 -3.68,-3.77 -1.55,-0.92 -3.25,-1.38 -5.11,-1.38 -1.86,0 -3.62,0.47 -5.17,1.41 -1.55,0.94 -2.78,2.19 -3.68,3.74 -0.91,1.55 -1.36,3.27 -1.36,5.15 0,1.88 0.45,3.61 1.36,5.18 0.91,1.57 2.14,2.83 3.68,3.77 1.55,0.94 3.27,1.41 5.17,1.41 z m -52.75,5.95 v -32.49 h 7.06 v 4.29 c 1.11,-1.43 2.55,-2.59 4.3,-3.49 1.75,-0.9 3.75,-1.35 5.97,-1.35 2.39,0 4.64,0.53 6.75,1.59 2.1,1.06 3.8,2.6 5.08,4.6 1.28,2 1.92,4.31 1.92,6.93 v 19.92 h -7.12 v -18.02 c 0,-1.72 -0.36,-3.21 -1.08,-4.47 -0.72,-1.27 -1.69,-2.25 -2.91,-2.94 -1.22,-0.69 -2.57,-1.04 -4.06,-1.04 -1.69,0 -3.22,0.43 -4.58,1.29 -1.36,0.86 -2.41,2.02 -3.16,3.49 -0.74,1.47 -1.11,3.15 -1.11,5.03 v 16.67 h -7.06 z m -24.46,0.49 c -2.97,0 -5.71,-0.76 -8.2,-2.27 -2.5,-1.51 -4.48,-3.56 -5.94,-6.13 -1.47,-2.57 -2.2,-5.35 -2.2,-8.34 0,-2.99 0.73,-5.88 2.2,-8.46 1.46,-2.57 3.45,-4.61 5.94,-6.1 2.5,-1.49 5.23,-2.24 8.2,-2.24 2.19,0 4.19,0.44 6.01,1.32 1.82,0.88 3.32,2.07 4.52,3.59 v -4.35 h 7.12 v 32.49 h -7.12 v -4.35 c -1.2,1.51 -2.7,2.7 -4.52,3.56 -1.82,0.86 -3.82,1.29 -6.01,1.29 z m 0.62,-6.38 c 1.86,0 3.58,-0.47 5.17,-1.41 1.59,-0.94 2.86,-2.21 3.81,-3.8 0.95,-1.59 1.42,-3.31 1.42,-5.15 0,-1.84 -0.47,-3.56 -1.42,-5.15 -0.95,-1.59 -2.22,-2.87 -3.81,-3.83 -1.59,-0.96 -3.31,-1.44 -5.17,-1.44 -1.86,0 -3.64,0.47 -5.23,1.41 -1.59,0.94 -2.84,2.21 -3.75,3.8 -0.91,1.59 -1.36,3.33 -1.36,5.21 0,1.88 0.45,3.61 1.36,5.18 0.91,1.57 2.15,2.83 3.71,3.77 1.57,0.94 3.32,1.41 5.26,1.41 z m -36.28,6.38 c -3.1,0 -5.94,-0.76 -8.54,-2.27 -2.6,-1.51 -4.63,-3.56 -6.1,-6.13 -1.47,-2.57 -2.2,-5.35 -2.2,-8.34 0,-2.99 0.75,-5.88 2.26,-8.46 1.51,-2.57 3.55,-4.61 6.13,-6.1 2.58,-1.49 5.4,-2.24 8.45,-2.24 3.51,0 6.66,0.97 9.44,2.91 2.79,1.94 4.8,4.48 6.04,7.63 l -6.56,1.78 c -0.83,-1.8 -2.02,-3.24 -3.59,-4.32 -1.57,-1.08 -3.34,-1.62 -5.32,-1.62 -1.98,0 -3.62,0.47 -5.17,1.41 -1.55,0.94 -2.78,2.21 -3.68,3.8 -0.91,1.59 -1.36,3.33 -1.36,5.21 0,1.88 0.45,3.62 1.36,5.21 0.91,1.59 2.15,2.85 3.71,3.77 1.57,0.92 3.28,1.38 5.14,1.38 2.02,0 3.81,-0.54 5.36,-1.62 1.55,-1.08 2.73,-2.5 3.56,-4.26 l 6.56,1.78 c -1.28,3.11 -3.3,5.63 -6.07,7.57 -2.77,1.94 -5.9,2.91 -9.41,2.91 z m -29.72,-0.49 h 7.12 v -42.91 h -7.12 z m -22.41,-26.61 c -1.9,0 -3.62,0.47 -5.17,1.41 -1.55,0.94 -2.78,2.19 -3.68,3.74 -0.91,1.55 -1.36,3.27 -1.36,5.15 0,1.88 0.45,3.61 1.36,5.18 0.91,1.57 2.14,2.83 3.68,3.77 1.55,0.94 3.27,1.41 5.17,1.41 1.9,0 3.56,-0.47 5.11,-1.41 1.55,-0.94 2.78,-2.2 3.68,-3.77 0.91,-1.57 1.36,-3.3 1.36,-5.18 0,-1.88 -0.45,-3.55 -1.36,-5.15 -0.91,-1.59 -2.14,-2.85 -3.68,-3.77 -1.55,-0.92 -3.25,-1.38 -5.11,-1.38 z m -47.22,-16.3 12.51,38.31 12.82,-38.31 h 7.99 l -14.8,42.91 h -11.95 l -14.67,-42.91 h 8.11 z m 47.22,9.87 c 3.05,0 5.87,0.76 8.45,2.27 2.58,1.51 4.62,3.56 6.13,6.13 1.51,2.57 2.26,5.35 2.26,8.34 0,2.99 -0.75,5.82 -2.26,8.4 -1.51,2.57 -3.55,4.62 -6.13,6.13 -2.58,1.51 -5.4,2.27 -8.45,2.27 -3.05,0 -5.92,-0.76 -8.48,-2.27 -2.56,-1.51 -4.6,-3.56 -6.13,-6.13 -1.53,-2.57 -2.29,-5.37 -2.29,-8.4 0,-3.03 0.76,-5.81 2.29,-8.37 1.53,-2.55 3.57,-4.59 6.13,-6.1 2.56,-1.51 5.39,-2.27 8.48,-2.27 z"
         class="cls-2"
         id="path40" />
      <g
         id="g45">
        <path
           d="m 5937.59,3243.2 -12.18,37.48 h 26.17 l -12.18,-37.48 c -0.29,-0.88 -1.53,-0.88 -1.81,0 z"
           class="cls-8"
           id="path41" />
        <path
           d="m 5919.7,3254.13 c -0.29,-0.88 -1.53,-0.88 -1.81,0 l -8.63,26.55 h 7.66 l 5.7,-17.55 z"
           class="cls-8"
           id="path42" />
        <path
           d="m 5933.27,3235.94 c -0.29,-0.88 -1.53,-0.88 -1.81,0 l -14.54,44.74 h 8.49 l 11.2,-34.47 z"
           class="cls-9"
           id="path43" />
        <path
           d="m 5967.61,3249.31 c -0.29,-0.88 -1.53,-0.88 -1.81,0 l -2.89,8.9 7.3,22.48 h 7.59 z"
           class="cls-8"
           id="path44" />
        <path
           d="m 5950.6,3220.32 c -0.29,-0.88 -1.53,-0.88 -1.81,0 l -8.41,25.88 11.2,34.47 h 18.63 l -19.61,-60.36 z"
           class="cls-9"
           id="path45" />
      </g>
    </g>
  </g>
</svg>
